<svg width="34" height="34" viewBox="0 0 34 34" fill="none" xmlns="http://www.w3.org/2000/svg">
<path d="M34 29.75C34 30.8772 33.5522 31.9582 32.7552 32.7552C31.9582 33.5522 30.8772 34 29.75 34H4.25C3.12283 34 2.04183 33.5522 1.2448 32.7552C0.447767 31.9582 0 30.8772 0 29.75V4.25C0 3.12283 0.447767 2.04183 1.2448 1.2448C2.04183 0.447767 3.12283 0 4.25 0L29.75 0C30.8772 0 31.9582 0.447767 32.7552 1.2448C33.5522 2.04183 34 3.12283 34 4.25V29.75ZM24.4375 15.9375H12.1274L16.6898 11.3773C16.8893 11.1777 17.0013 10.9071 17.0013 10.625C17.0013 10.3429 16.8893 10.0723 16.6898 9.87275C16.4902 9.67324 16.2196 9.56116 15.9375 9.56116C15.6554 9.56116 15.3848 9.67324 15.1852 9.87275L8.81025 16.2477C8.7113 16.3464 8.6328 16.4637 8.57924 16.5928C8.52567 16.7219 8.4981 16.8602 8.4981 17C8.4981 17.1398 8.52567 17.2781 8.57924 17.4072C8.6328 17.5363 8.7113 17.6536 8.81025 17.7523L15.1852 24.1273C15.3848 24.3268 15.6554 24.4388 15.9375 24.4388C16.2196 24.4388 16.4902 24.3268 16.6898 24.1273C16.8893 23.9277 17.0013 23.6571 17.0013 23.375C17.0013 23.0929 16.8893 22.8223 16.6898 22.6227L12.1274 18.0625H24.4375C24.7193 18.0625 24.9895 17.9506 25.1888 17.7513C25.3881 17.552 25.5 17.2818 25.5 17C25.5 16.7182 25.3881 16.448 25.1888 16.2487C24.9895 16.0494 24.7193 15.9375 24.4375 15.9375Z" fill="#8EE4AF"/>
</svg>
