<svg width="34" height="34" viewBox="0 0 34 34" fill="none" xmlns="http://www.w3.org/2000/svg">
<path d="M0 29.75C0 30.8772 0.447767 31.9582 1.2448 32.7552C2.04183 33.5522 3.12283 34 4.25 34H29.75C30.8772 34 31.9582 33.5522 32.7552 32.7552C33.5522 31.9582 34 30.8772 34 29.75V4.25C34 3.12283 33.5522 2.04183 32.7552 1.2448C31.9582 0.447767 30.8772 0 29.75 0L4.25 0C3.12283 0 2.04183 0.447767 1.2448 1.2448C0.447767 2.04183 0 3.12283 0 4.25V29.75ZM9.5625 15.9375H21.8726L17.3102 11.3773C17.1107 11.1777 16.9987 10.9071 16.9987 10.625C16.9987 10.3429 17.1107 10.0723 17.3102 9.87275C17.5098 9.67324 17.7804 9.56116 18.0625 9.56116C18.3446 9.56116 18.6152 9.67324 18.8148 9.87275L25.1898 16.2477C25.2887 16.3464 25.3672 16.4637 25.4208 16.5928C25.4743 16.7219 25.5019 16.8602 25.5019 17C25.5019 17.1398 25.4743 17.2781 25.4208 17.4072C25.3672 17.5363 25.2887 17.6536 25.1898 17.7523L18.8148 24.1273C18.6152 24.3268 18.3446 24.4388 18.0625 24.4388C17.7804 24.4388 17.5098 24.3268 17.3102 24.1273C17.1107 23.9277 16.9987 23.6571 16.9987 23.375C16.9987 23.0929 17.1107 22.8223 17.3102 22.6227L21.8726 18.0625H9.5625C9.28071 18.0625 9.01046 17.9506 8.8112 17.7513C8.61194 17.552 8.5 17.2818 8.5 17C8.5 16.7182 8.61194 16.448 8.8112 16.2487C9.01046 16.0494 9.28071 15.9375 9.5625 15.9375Z" fill="#8EE4AF"/>
</svg>
