<svg width="34" height="34" viewBox="0 0 34 34" fill="#EDF5E1" xmlns="http://www.w3.org/2000/svg">
<path d="M23.1484 13.2062C23.2845 13.0793 23.3943 12.9269 23.4714 12.7576C23.5486 12.5883 23.5917 12.4054 23.5982 12.2195C23.6047 12.0335 23.5745 11.8481 23.5094 11.6738C23.4442 11.4996 23.3454 11.3398 23.2185 11.2037C23.0917 11.0676 22.9392 10.9579 22.7699 10.8807C22.6006 10.8035 22.4178 10.7604 22.2318 10.7539C22.0459 10.7474 21.8605 10.7776 21.6862 10.8427C21.5119 10.9079 21.3522 11.0067 21.2161 11.1336L17.0709 14.9983L13.2062 10.8517C12.9477 10.5868 12.5957 10.4337 12.2256 10.4251C11.8556 10.4164 11.4968 10.553 11.2262 10.8055C10.9555 11.058 10.7944 11.4064 10.7774 11.7762C10.7604 12.146 10.8888 12.5077 11.1351 12.784L14.9997 16.9292L10.8532 20.7938C10.7123 20.9194 10.5979 21.0719 10.5167 21.2423C10.4356 21.4127 10.3893 21.5977 10.3806 21.7862C10.372 21.9747 10.4011 22.1631 10.4662 22.3403C10.5313 22.5174 10.6312 22.6798 10.76 22.8178C10.8887 22.9558 11.0438 23.0667 11.216 23.1439C11.3882 23.2212 11.5741 23.2632 11.7628 23.2676C11.9515 23.272 12.1392 23.2387 12.3148 23.1695C12.4904 23.1004 12.6504 22.9969 12.7855 22.865L16.9307 19.0018L20.7953 23.1469C20.9201 23.2904 21.0725 23.4073 21.2434 23.4907C21.4144 23.574 21.6003 23.6221 21.7902 23.632C21.9801 23.642 22.1701 23.6136 22.3488 23.5486C22.5275 23.4835 22.6913 23.3832 22.8304 23.2535C22.9695 23.1238 23.081 22.9675 23.1584 22.7938C23.2358 22.6201 23.2774 22.4326 23.2808 22.2424C23.2841 22.0523 23.2492 21.8634 23.178 21.6871C23.1069 21.5107 23.0009 21.3505 22.8665 21.216L19.0032 17.0708L23.1484 13.2062V13.2062Z" fill="#EDF5E1"/>
<path fill-rule="evenodd" clip-rule="evenodd" d="M1.41675 17C1.41675 8.39377 8.39383 1.41669 17.0001 1.41669C25.6063 1.41669 32.5834 8.39377 32.5834 17C32.5834 25.6063 25.6063 32.5834 17.0001 32.5834C8.39383 32.5834 1.41675 25.6063 1.41675 17ZM17.0001 29.75C15.3257 29.75 13.6678 29.4202 12.1209 28.7795C10.574 28.1387 9.16842 27.1996 7.98447 26.0156C6.80052 24.8317 5.86136 23.4261 5.22062 21.8792C4.57987 20.3323 4.25008 18.6744 4.25008 17C4.25008 15.3257 4.57987 13.6677 5.22062 12.1208C5.86136 10.5739 6.80052 9.16836 7.98447 7.98441C9.16842 6.80046 10.574 5.8613 12.1209 5.22056C13.6678 4.57981 15.3257 4.25002 17.0001 4.25002C20.3816 4.25002 23.6246 5.59332 26.0157 7.98441C28.4068 10.3755 29.7501 13.6185 29.7501 17C29.7501 20.3815 28.4068 23.6245 26.0157 26.0156C23.6246 28.4067 20.3816 29.75 17.0001 29.75Z" fill="#EDF5E1"/>
</svg>
