<svg width="38" height="39" viewBox="0 0 38 39" fill="none" xmlns="http://www.w3.org/2000/svg">
<path fill-rule="evenodd" clip-rule="evenodd" d="M19 0C8.5025 0 0 8.72625 0 19.5C0 28.1287 5.43875 35.4169 12.9913 38.0006C13.9412 38.1712 14.2975 37.5862 14.2975 37.0744C14.2975 36.6112 14.2738 35.0756 14.2738 33.4425C9.5 34.3444 8.265 32.2481 7.885 31.1512C7.67125 30.5906 6.745 28.86 5.9375 28.3969C5.2725 28.0312 4.3225 27.1294 5.91375 27.105C7.41 27.0806 8.47875 28.5187 8.835 29.1037C10.545 32.0531 13.2762 31.2244 14.3687 30.7125C14.535 29.445 15.0338 28.5919 15.58 28.1044C11.3525 27.6169 6.935 25.935 6.935 18.4762C6.935 16.3556 7.67125 14.6006 8.8825 13.2356C8.6925 12.7481 8.0275 10.7494 9.0725 8.06812C9.0725 8.06812 10.6637 7.55625 14.2975 10.0669C15.8175 9.62812 17.4325 9.40875 19.0475 9.40875C20.6625 9.40875 22.2775 9.62812 23.7975 10.0669C27.4312 7.53187 29.0225 8.06812 29.0225 8.06812C30.0675 10.7494 29.4025 12.7481 29.2125 13.2356C30.4238 14.6006 31.16 16.3312 31.16 18.4762C31.16 25.9594 26.7188 27.6169 22.4913 28.1044C23.18 28.7137 23.7738 29.8837 23.7738 31.7119C23.7738 34.32 23.75 36.4162 23.75 37.0744C23.75 37.5862 24.1063 38.1956 25.0562 38.0006C28.828 36.6937 32.1055 34.2057 34.4275 30.887C36.7494 27.5682 37.9989 23.5857 38 19.5C38 8.72625 29.4975 0 19 0Z" fill="#05386B"/>
</svg>
