<svg width="63" height="63" viewBox="0 0 63 63" fill="none" xmlns="http://www.w3.org/2000/svg">
<path d="M48.8625 31.9827L32.3625 17.3994C31.6676 16.784 30.333 16.784 29.6381 17.3994L13.1381 31.9827C12.9006 32.1921 12.7447 32.4519 12.6894 32.7305C12.6341 33.0091 12.6817 33.2944 12.8265 33.5519C13.1198 34.0783 13.7761 34.4167 14.5003 34.4167H18.167V44.625C18.167 45.0118 18.3601 45.3827 18.7039 45.6562C19.0478 45.9297 19.5141 46.0833 20.0003 46.0833H25.5003C25.9865 46.0833 26.4528 45.9297 26.7967 45.6562C27.1405 45.3827 27.3336 45.0118 27.3336 44.625V38.7917H34.667V44.625C34.667 45.0118 34.8601 45.3827 35.2039 45.6562C35.5478 45.9297 36.0141 46.0833 36.5003 46.0833H42.0003C42.4865 46.0833 42.9528 45.9297 43.2967 45.6562C43.6405 45.3827 43.8336 45.0118 43.8336 44.625V34.4167H47.5003C47.8554 34.4179 48.2032 34.3369 48.5014 34.1835C48.7995 34.0302 49.0352 33.8112 49.1796 33.5532C49.324 33.2952 49.3709 33.0093 49.3146 32.7304C49.2583 32.4516 49.1012 32.1918 48.8625 31.9827Z" fill="#05386B"/>
</svg>
