<svg width="38" height="31" viewBox="0 0 38 31" fill="none" xmlns="http://www.w3.org/2000/svg">
<path d="M36.8625 15.9826L20.3625 1.39931C19.6676 0.78389 18.333 0.78389 17.6381 1.39931L1.13813 15.9826C0.900633 16.1921 0.744741 16.4518 0.68941 16.7304C0.63408 17.009 0.681693 17.2944 0.826462 17.5518C1.1198 18.0783 1.77613 18.4166 2.5003 18.4166H6.16696V28.6249C6.16696 29.0117 6.36012 29.3826 6.70393 29.6561C7.04775 29.9296 7.51407 30.0833 8.0003 30.0833H13.5003C13.9865 30.0833 14.4528 29.9296 14.7967 29.6561C15.1405 29.3826 15.3336 29.0117 15.3336 28.6249V22.7916H22.667V28.6249C22.667 29.0117 22.8601 29.3826 23.2039 29.6561C23.5478 29.9296 24.0141 30.0833 24.5003 30.0833H30.0003C30.4865 30.0833 30.9528 29.9296 31.2967 29.6561C31.6405 29.3826 31.8336 29.0117 31.8336 28.6249V18.4166H35.5003C35.8554 18.4178 36.2032 18.3368 36.5014 18.1835C36.7995 18.0302 37.0352 17.8111 37.1796 17.5531C37.324 17.2951 37.3709 17.0092 37.3146 16.7304C37.2583 16.4515 37.1012 16.1917 36.8625 15.9826Z" fill="#05386B"/>
</svg>
