<svg width="35" height="35" viewBox="0 0 40 40" fill="none" xmlns="http://www.w3.org/2000/svg">
<path d="M28.72 24C28.88 22.68 29 21.36 29 20C29 18.64 28.88 17.32 28.72 16H35.48C35.8 17.28 36 18.62 36 20C36 21.38 35.8 22.72 35.48 24H28.72ZM25.18 35.12C26.38 32.9 27.3 30.5 27.94 28H33.84C31.9023 31.3366 28.8282 33.864 25.18 35.12ZM24.68 24H15.32C15.12 22.68 15 21.36 15 20C15 18.64 15.12 17.3 15.32 16H24.68C24.86 17.3 25 18.64 25 20C25 21.36 24.86 22.68 24.68 24ZM20 35.92C18.34 33.52 17 30.86 16.18 28H23.82C23 30.86 21.66 33.52 20 35.92ZM12 12H6.16C8.07771 8.65443 11.1496 6.12297 14.8 4.88C13.6 7.1 12.7 9.5 12 12ZM6.16 28H12C12.7 30.5 13.6 32.9 14.8 35.12C11.1572 33.8633 8.08969 31.3354 6.16 28ZM4.52 24C4.2 22.72 4 21.38 4 20C4 18.62 4.2 17.28 4.52 16H11.28C11.12 17.32 11 18.64 11 20C11 21.36 11.12 22.68 11.28 24H4.52ZM20 4.06C21.66 6.46 23 9.14 23.82 12H16.18C17 9.14 18.34 6.46 20 4.06ZM33.84 12H27.94C27.314 9.52292 26.3871 7.13179 25.18 4.88C28.86 6.14 31.92 8.68 33.84 12ZM20 0C8.94 0 0 9 0 20C0 25.3043 2.10714 30.3914 5.85786 34.1421C7.71504 35.9993 9.91982 37.4725 12.3463 38.4776C14.7728 39.4827 17.3736 40 20 40C25.3043 40 30.3914 37.8929 34.1421 34.1421C37.8929 30.3914 40 25.3043 40 20C40 17.3736 39.4827 14.7728 38.4776 12.3463C37.4725 9.91982 35.9993 7.71504 34.1421 5.85786C32.285 4.00069 30.0802 2.5275 27.6537 1.52241C25.2272 0.517315 22.6264 0 20 0Z" fill="#edf5e1"/>
</svg>
