<svg width="54" height="80" viewBox="0 0 54 80" fill="none" xmlns="http://www.w3.org/2000/svg">
<path fill-rule="evenodd" clip-rule="evenodd" d="M14.7169 0C6.56021 0 0.000211683 6.84333 0.000211683 15.2267C0.000211683 20.3233 2.42688 24.85 6.15688 27.6133C4.23448 29.0536 2.67624 30.9243 1.60709 33.0753C0.537941 35.2263 -0.0123914 37.5979 0.000211683 40C0.000211683 45.1 2.42688 49.6233 6.15688 52.3867C4.23448 53.827 2.67624 55.6976 1.60709 57.8486C0.537941 59.9997 -0.0123914 62.3713 0.000211683 64.7733C0.000211683 73.1567 6.56021 80 14.7169 80C22.8702 80 29.4335 73.1567 29.4335 64.7733V51.9C32.0113 54.0493 35.2606 55.2275 38.6169 55.23C46.7735 55.2267 53.3335 48.3833 53.3335 40C53.3469 37.5978 52.797 35.2259 51.7277 33.0748C50.6585 30.9236 49.0999 29.0531 47.1769 27.6133C49.0993 26.173 50.6575 24.3024 51.7267 22.1514C52.7958 20.0003 53.3461 17.6287 53.3335 15.2267C53.3335 6.84333 46.7735 0 38.6169 0H14.7169ZM5.53021 15.2267C5.53021 9.92333 9.67021 5.67667 14.7169 5.67667H23.9002V24.7767H14.7169C9.67021 24.7767 5.53021 20.5267 5.53021 15.2267ZM38.6169 24.7733H29.4335V5.67333H38.6169C43.6669 5.67333 47.8035 9.92333 47.8035 15.2267C47.8035 20.5267 43.6669 24.7733 38.6169 24.7733ZM5.53355 40C5.53355 34.7 9.67355 30.45 14.7202 30.45H23.9035V49.55H14.7169C9.66688 49.55 5.53021 45.3 5.53021 40H5.53355ZM29.4335 40C29.4335 34.7 33.5735 30.45 38.6202 30.45C43.6702 30.45 47.8069 34.6967 47.8069 40C47.8069 45.3 43.6702 49.55 38.6202 49.55C33.5735 49.55 29.4369 45.3033 29.4369 40H29.4335ZM5.53355 64.7733C5.53355 59.4733 9.67355 55.2267 14.7202 55.2267H23.9035V64.7733C23.9035 70.0767 19.7702 74.3233 14.7202 74.3233C9.67355 74.3233 5.53355 70.0767 5.53355 64.7733Z" fill="#8EE4AF"/>
</svg>
