<svg width="60" height="80" viewBox="0 0 60 80" fill="none" xmlns="http://www.w3.org/2000/svg">
<path d="M6.93335 0H10.54V3.56333H13.84V0H17.4467V10.7867H13.84V7.17667H10.54V10.7867H6.93668V0H6.93335ZM22.1867 3.57667H19.0134V0H28.97V3.57667H25.7934V10.7867H22.1867V3.57667ZM30.55 0H34.31L36.6234 3.79L38.9334 0H42.6934V10.7867H39.1034V5.44L36.6234 9.27667H36.56L34.0767 5.44333V10.7867H30.55V0ZM44.4867 0H48.0967V7.22333H53.1634V10.79H44.4867V0Z" fill="#8EE4AF"/>
<path fill-rule="evenodd" clip-rule="evenodd" d="M6.82 73.5733L0 15.7233H60L53.1767 73.5667L29.9667 80L6.82 73.5733ZM20.61 41.9067L19.9633 34.64H47.1133L47.7467 27.5467H12.2133L14.1267 49.0033H38.7167L37.8933 58.2033L29.98 60.3433H29.9733L22.0733 58.21L21.5667 52.5533H14.44L15.4333 63.6933L29.9667 67.7267L44.5233 63.6933L46.2967 43.8133L46.47 41.91H20.61V41.9067Z" fill="#8EE4AF"/>
</svg>
