<svg width="80" height="80" viewBox="0 0 80 80" fill="none" xmlns="http://www.w3.org/2000/svg">
<path d="M0 0V80H80V0H0ZM43.5371 62.3914C43.5371 70.1771 38.9657 73.7314 32.3057 73.7314C26.2886 73.7314 22.8057 70.6257 21.02 66.8571L27.1457 63.16C28.3257 65.2486 29.3971 67.0171 31.9857 67.0171C34.4486 67.0171 36.02 66.0514 36.02 62.2857V36.7314H43.5371V62.3914ZM61.32 73.7314C54.3371 73.7314 49.82 70.4114 47.6229 66.0514L53.7486 62.5171C55.3571 65.1429 57.4629 67.0886 61.16 67.0886C64.2657 67.0886 66.2686 65.5343 66.2686 63.3743C66.2686 60.8029 64.2314 59.8914 60.7857 58.3743L58.9114 57.5714C53.4829 55.2686 49.8943 52.3571 49.8943 46.2314C49.8943 40.5886 54.1971 36.3029 60.8943 36.3029C65.68 36.3029 69.1086 37.9629 71.5743 42.32L65.7171 46.0714C64.4314 43.7686 63.0371 42.8571 60.8771 42.8571C58.6829 42.8571 57.2886 44.2514 57.2886 46.0714C57.2886 48.3229 58.6829 49.2314 61.9143 50.6429L63.7886 51.4457C70.1829 54.1771 73.7714 56.9829 73.7714 63.2657C73.7714 70.0171 68.4486 73.7286 61.3229 73.7286L61.32 73.7314Z" fill="#8EE4AF"/>
</svg>
